<?xml version="1.0" encoding="UTF-8"?>
<!DOCTYPE svg PUBLIC "-//W3C//DTD SVG 1.1//EN" "http://www.w3.org/Graphics/SVG/1.1/DTD/svg11.dtd">
<svg xmlns="http://www.w3.org/2000/svg" version="1.1" width="344px" height="260px" style="shape-rendering:geometricPrecision; text-rendering:geometricPrecision; image-rendering:optimizeQuality; fill-rule:evenodd; clip-rule:evenodd" xmlns:xlink="http://www.w3.org/1999/xlink">
<g><path style="opacity:1" fill="#000000" d="M -0.5,-0.5 C 114.167,-0.5 228.833,-0.5 343.5,-0.5C 343.5,86.1667 343.5,172.833 343.5,259.5C 228.833,259.5 114.167,259.5 -0.5,259.5C -0.5,172.833 -0.5,86.1667 -0.5,-0.5 Z"/></g>
<g><path style="opacity:1" fill="#090601" d="M 177.5,29.5 C 176.856,32.8044 174.856,34.1378 171.5,33.5C 159.39,29.7038 149.556,33.0372 142,43.5C 139.715,47.1869 138.548,51.1869 138.5,55.5C 136.5,55.5 134.5,55.5 132.5,55.5C 134.778,37.2224 145.111,27.5557 163.5,26.5C 168.48,26.2465 173.147,27.2465 177.5,29.5 Z"/></g>
<g><path style="opacity:1" fill="#0d0a05" d="M 188.5,38.5 C 197.529,53.4882 196.195,67.4882 184.5,80.5C 178.909,84.793 172.576,87.1263 165.5,87.5C 165.5,85.8333 165.5,84.1667 165.5,82.5C 169.644,82.2231 173.311,80.8897 176.5,78.5C 186.612,71.9207 190.446,62.5874 188,50.5C 185.963,44.4088 182.463,39.4088 177.5,35.5C 178.026,33.7697 179.026,32.4363 180.5,31.5C 183.83,33.1691 186.497,35.5025 188.5,38.5 Z"/></g>
<g><path style="opacity:1" fill="#040300" d="M 169.5,35.5 C 186.735,43.7929 190.235,56.1262 180,72.5C 178.008,73.6647 176.175,74.998 174.5,76.5C 158.953,82.6408 148.119,77.9741 142,62.5C 140.869,42.7966 150.035,33.7966 169.5,35.5 Z"/></g>
<g><path style="opacity:1" fill="#cba745" d="M 179.5,27.5 C 183.603,29.2164 186.936,31.8831 189.5,35.5C 188.596,36.209 188.263,37.209 188.5,38.5C 186.497,35.5025 183.83,33.1691 180.5,31.5C 179.026,32.4363 178.026,33.7697 177.5,35.5C 182.463,39.4088 185.963,44.4088 188,50.5C 190.446,62.5874 186.612,71.9207 176.5,78.5C 175.167,78.5 174.5,77.8333 174.5,76.5C 176.175,74.998 178.008,73.6647 180,72.5C 190.235,56.1262 186.735,43.7929 169.5,35.5C 169.5,34.1667 170.167,33.5 171.5,33.5C 174.856,34.1378 176.856,32.8044 177.5,29.5C 178.167,28.8333 178.833,28.1667 179.5,27.5 Z"/></g>
<g><path style="opacity:1" fill="#e0c371" d="M 189.5,35.5 C 199.1,48.2388 199.933,61.5721 192,75.5C 190.334,78.3312 188.168,80.6645 185.5,82.5C 184.662,82.1583 184.328,81.4916 184.5,80.5C 196.195,67.4882 197.529,53.4882 188.5,38.5C 188.263,37.209 188.596,36.209 189.5,35.5 Z"/></g>
<g><path style="opacity:1" fill="#ad8816" d="M 179.5,27.5 C 178.833,28.1667 178.167,28.8333 177.5,29.5C 173.147,27.2465 168.48,26.2465 163.5,26.5C 145.111,27.5557 134.778,37.2224 132.5,55.5C 134.5,55.5 136.5,55.5 138.5,55.5C 138.548,51.1869 139.715,47.1869 142,43.5C 149.556,33.0372 159.39,29.7038 171.5,33.5C 170.167,33.5 169.5,34.1667 169.5,35.5C 150.035,33.7966 140.869,42.7966 142,62.5C 148.119,77.9741 158.953,82.6408 174.5,76.5C 174.5,77.8333 175.167,78.5 176.5,78.5C 173.311,80.8897 169.644,82.2231 165.5,82.5C 165.5,84.1667 165.5,85.8333 165.5,87.5C 172.576,87.1263 178.909,84.793 184.5,80.5C 184.328,81.4916 184.662,82.1583 185.5,82.5C 181.852,85.9969 177.519,88.4969 172.5,90C 149.709,93.1907 135.542,83.6907 130,61.5C 128.782,44.4417 135.948,32.275 151.5,25C 158.099,23.5043 164.766,23.171 171.5,24C 174.476,24.7048 177.142,25.8714 179.5,27.5 Z"/></g>
<g><path style="opacity:1" fill="#a1790a" d="M 161.5,44.5 C 162.833,44.5 164.167,44.5 165.5,44.5C 165.799,46.973 166.799,49.1397 168.5,51C 168.167,51.5 167.833,52 167.5,52.5C 165.827,50.9137 163.827,50.2471 161.5,50.5C 161.5,52.1667 161.5,53.8333 161.5,55.5C 167.279,55.1117 169.779,57.7783 169,63.5C 166.735,64.9158 165.569,66.9158 165.5,69.5C 164.167,69.5 162.833,69.5 161.5,69.5C 160.5,66.8333 159.5,64.1667 158.5,61.5C 160.737,62.449 163.071,63.1156 165.5,63.5C 165.5,61.8333 165.5,60.1667 165.5,58.5C 159.721,58.8883 157.221,56.2217 158,50.5C 160.265,49.0842 161.431,47.0842 161.5,44.5 Z"/></g>
<g><path style="opacity:1" fill="#0a0601" d="M 132.5,58.5 C 134.5,58.5 136.5,58.5 138.5,58.5C 139.886,71.8887 147.22,79.8887 160.5,82.5C 161.452,84.0453 161.785,85.712 161.5,87.5C 144.23,85.5638 134.564,75.8971 132.5,58.5 Z"/></g>
<g><path style="opacity:1" fill="#322908" d="M 281.5,121.5 C 275.642,121.178 269.975,121.511 264.5,122.5C 263.957,122.44 263.624,122.107 263.5,121.5C 269.654,120.183 275.654,120.183 281.5,121.5 Z"/></g>
<g><path style="opacity:1" fill="#ae901f" d="M 99.5,122.5 C 100.946,121.387 102.613,121.22 104.5,122C 103.513,133.085 103.179,144.252 103.5,155.5C 108.844,155.666 114.177,155.499 119.5,155C 120.766,154.691 121.933,154.191 123,153.5C 123.49,154.793 123.657,156.127 123.5,157.5C 115.472,157.831 107.472,157.498 99.5,156.5C 100.821,145.039 100.821,133.705 99.5,122.5 Z"/></g>
<g><path style="opacity:1" fill="#b0921f" d="M 129.5,122.5 C 130.946,121.387 132.613,121.22 134.5,122C 133.513,133.085 133.179,144.252 133.5,155.5C 138.844,155.666 144.177,155.499 149.5,155C 151.329,154.727 152.829,153.893 154,152.5C 154.494,154.134 154.66,155.801 154.5,157.5C 146.14,157.831 137.807,157.498 129.5,156.5C 130.821,145.039 130.821,133.705 129.5,122.5 Z"/></g>
<g><path style="opacity:1" fill="#a0851d" d="M 171.5,155.5 C 170.791,156.404 169.791,156.737 168.5,156.5C 164.146,155.644 161.646,152.977 161,148.5C 160.819,139.589 160.319,130.755 159.5,122C 161.134,121.506 162.801,121.34 164.5,121.5C 164.334,131.172 164.5,140.839 165,150.5C 166.159,153.493 168.325,155.16 171.5,155.5 Z"/></g>
<g><path style="opacity:1" fill="#a3871d" d="M 213.5,148.5 C 213.987,149.473 214.487,150.473 215,151.5C 215.825,141.658 215.658,131.991 214.5,122.5C 215.251,121.427 216.251,121.26 217.5,122C 216.843,133.772 216.176,145.605 215.5,157.5C 209.333,146.5 203.167,135.5 197,124.5C 196.18,135.41 196.347,146.243 197.5,157C 196.056,157.781 194.723,157.614 193.5,156.5C 194.825,144.97 194.825,133.47 193.5,122C 195.473,121.505 197.473,121.338 199.5,121.5C 203.878,130.588 208.545,139.588 213.5,148.5 Z"/></g>
<g><path style="opacity:1" fill="#a3871d" d="M 239.5,121.5 C 240.822,121.33 241.989,121.663 243,122.5C 247.261,134.295 252.094,145.795 257.5,157C 255.866,157.494 254.199,157.66 252.5,157.5C 251.372,152.781 250.038,148.114 248.5,143.5C 243.125,143.172 237.792,143.505 232.5,144.5C 230.28,148.595 228.947,152.928 228.5,157.5C 227.127,157.657 225.793,157.49 224.5,157C 230.175,145.479 235.175,133.646 239.5,121.5 Z"/></g>
<g><path style="opacity:1" fill="#af911f" d="M 264.5,122.5 C 269.975,121.511 275.642,121.178 281.5,121.5C 292.736,122.228 296.57,127.895 293,138.5C 289.997,141.338 286.497,143.338 282.5,144.5C 285.014,149.384 288.348,153.551 292.5,157C 290.527,157.495 288.527,157.662 286.5,157.5C 284.868,153.012 282.535,148.845 279.5,145C 275.848,144.501 272.182,144.335 268.5,144.5C 268.203,148.767 268.536,152.934 269.5,157C 267.741,157.798 266.074,157.631 264.5,156.5C 265.821,145.039 265.821,133.705 264.5,122.5 Z"/></g>
<g><path style="opacity:1" fill="#ab8e1f" d="M 300.5,122.5 C 308.65,121.507 316.983,121.174 325.5,121.5C 325.762,122.978 325.429,124.311 324.5,125.5C 318.465,122.662 312.132,121.829 305.5,123C 304.536,127.066 304.203,131.233 304.5,135.5C 308.619,135.512 312.452,134.512 316,132.5C 316.667,134.833 316.667,137.167 316,139.5C 312.673,136.846 308.839,135.846 304.5,136.5C 304.5,142.833 304.5,149.167 304.5,155.5C 309.844,155.666 315.177,155.499 320.5,155C 322.329,154.727 323.829,153.893 325,152.5C 325.494,154.134 325.66,155.801 325.5,157.5C 317.14,157.831 308.807,157.498 300.5,156.5C 301.821,145.039 301.821,133.705 300.5,122.5 Z"/></g>
<g><path style="opacity:1" fill="#060400" d="M 269.5,122.5 C 274.93,122.161 280.264,122.661 285.5,124C 291.368,127.04 292.868,131.54 290,137.5C 288.421,139.041 286.587,140.208 284.5,141C 279.246,142.271 273.913,142.771 268.5,142.5C 268.207,135.745 268.54,129.078 269.5,122.5 Z"/></g>
<g><path style="opacity:1" fill="#91781a" d="M 168.5,156.5 C 169.791,156.737 170.791,156.404 171.5,155.5C 175.839,156.154 179.673,155.154 183,152.5C 184.745,142.317 184.912,132.151 183.5,122C 184.448,121.517 185.448,121.351 186.5,121.5C 186.899,131.898 186.399,142.232 185,152.5C 180.273,157.315 174.773,158.648 168.5,156.5 Z"/></g>
<g><path style="opacity:1" fill="#2c2408" d="M 214.5,122.5 C 215.658,131.991 215.825,141.658 215,151.5C 214.487,150.473 213.987,149.473 213.5,148.5C 214.493,140.016 214.826,131.349 214.5,122.5 Z"/></g>
<g><path style="opacity:1" fill="#a6891d" d="M 31.5,121.5 C 35.5138,121.334 39.5138,121.501 43.5,122C 45.779,122.473 47.779,123.473 49.5,125C 48.6667,125.833 47.8333,126.667 47,127.5C 43.1551,122.997 38.3217,121.497 32.5,123C 26.1257,125.502 25.1257,129.168 29.5,134C 35.3524,136.395 41.3524,138.395 47.5,140C 52.1433,142.072 53.6433,145.572 52,150.5C 50.8333,153 49,154.833 46.5,156C 36.3327,159.808 27.9994,157.475 21.5,149C 22.3992,147.764 23.5659,146.93 25,146.5C 26.8597,148.375 28.3597,150.542 29.5,153C 33.4826,155.436 37.816,156.102 42.5,155C 48.5751,152.516 49.9084,148.516 46.5,143C 41.5597,141.181 36.5597,139.514 31.5,138C 21.0639,132.557 21.0639,127.057 31.5,121.5 Z"/></g>
<g><path style="opacity:1" fill="#050400" d="M 239.5,125.5 C 242.792,130.587 245.459,136.087 247.5,142C 242.798,142.828 238.131,142.662 233.5,141.5C 235.703,136.221 237.703,130.887 239.5,125.5 Z"/></g>
<g><path style="opacity:1" fill="#a5891d" d="M 70.5,121.5 C 81.5986,119.794 89.0986,124.128 93,134.5C 94.3221,150.177 87.1554,157.677 71.5,157C 58.3063,151.107 54.8063,141.607 61,128.5C 63.8249,125.524 66.9915,123.191 70.5,121.5 Z"/></g>
<g><path style="opacity:1" fill="#030200" d="M 72.5,122.5 C 85.3665,123.541 91.1999,130.541 90,143.5C 85.9697,154.844 78.4697,158.011 67.5,153C 61.0141,146.02 59.8474,138.186 64,129.5C 66.4412,126.546 69.2745,124.213 72.5,122.5 Z"/></g>
<g><path style="opacity:1" fill="#ab8d1e" d="M 164.5,185.5 C 165.822,185.33 166.989,185.663 168,186.5C 171.068,191.964 173.568,197.631 175.5,203.5C 173.41,203.55 172.077,202.55 171.5,200.5C 168.216,199.343 164.882,199.176 161.5,200C 160.781,202.556 159.114,203.723 156.5,203.5C 159.144,197.541 161.81,191.541 164.5,185.5 Z"/></g>
<g><path style="opacity:1" fill="#ab8e1e" d="M 216.5,185.5 C 219.187,185.336 221.854,185.503 224.5,186C 226.439,186.908 227.439,188.408 227.5,190.5C 225.174,189.849 222.841,189.182 220.5,188.5C 215.21,189.304 213.377,192.304 215,197.5C 218.795,201.455 222.628,201.455 226.5,197.5C 227.722,199.909 227.055,201.742 224.5,203C 212.942,204.402 209.109,199.569 213,188.5C 214.145,187.364 215.312,186.364 216.5,185.5 Z"/></g>
<g><path style="opacity:1" fill="#a0841c" d="M 94.5,185.5 C 98.8333,185.5 103.167,185.5 107.5,185.5C 107.5,186.5 107.5,187.5 107.5,188.5C 104.167,188.5 100.833,188.5 97.5,188.5C 97.5,190.167 97.5,191.833 97.5,193.5C 100.518,193.335 103.518,193.502 106.5,194C 106.957,194.414 107.291,194.914 107.5,195.5C 104.232,196.487 100.898,196.82 97.5,196.5C 97.6621,198.527 97.4955,200.527 97,202.5C 96,203.833 95,203.833 94,202.5C 93.2153,196.751 93.3819,191.084 94.5,185.5 Z"/></g>
<g><path style="opacity:1" fill="#b59620" d="M 118.5,185.5 C 119.5,185.5 120.5,185.5 121.5,185.5C 121.5,191.5 121.5,197.5 121.5,203.5C 120.5,203.5 119.5,203.5 118.5,203.5C 118.5,197.5 118.5,191.5 118.5,185.5 Z"/></g>
<g><path style="opacity:1" fill="#a2871d" d="M 132.5,185.5 C 134.371,185.859 135.871,186.859 137,188.5C 139,191.167 141,193.833 143,196.5C 143.333,193.167 143.667,189.833 144,186.5C 145,185.167 146,185.167 147,186.5C 147.806,192.084 147.639,197.584 146.5,203C 145.5,203.667 144.5,203.667 143.5,203C 141.12,199.742 138.62,196.576 136,193.5C 135.667,196.5 135.333,199.5 135,202.5C 134,203.833 133,203.833 132,202.5C 131.215,196.751 131.382,191.084 132.5,185.5 Z"/></g>
<g><path style="opacity:1" fill="#b29420" d="M 185.5,185.5 C 190.429,188.281 194.263,192.281 197,197.5C 197.499,193.514 197.666,189.514 197.5,185.5C 198.5,185.5 199.5,185.5 200.5,185.5C 200.5,191.5 200.5,197.5 200.5,203.5C 199.448,203.649 198.448,203.483 197.5,203C 194.667,199.5 191.833,196 189,192.5C 188.501,196.152 188.335,199.818 188.5,203.5C 187.5,203.5 186.5,203.5 185.5,203.5C 185.5,197.5 185.5,191.5 185.5,185.5 Z"/></g>
<g><path style="opacity:1" fill="#aa8d1e" d="M 238.5,185.5 C 243.167,185.5 247.833,185.5 252.5,185.5C 252.5,186.5 252.5,187.5 252.5,188.5C 248.833,188.5 245.167,188.5 241.5,188.5C 241.5,190.167 241.5,191.833 241.5,193.5C 244.833,193.5 248.167,193.5 251.5,193.5C 251.5,194.5 251.5,195.5 251.5,196.5C 248.167,196.5 244.833,196.5 241.5,196.5C 241.5,197.833 241.5,199.167 241.5,200.5C 245.167,200.5 248.833,200.5 252.5,200.5C 252.5,201.5 252.5,202.5 252.5,203.5C 247.833,203.5 243.167,203.5 238.5,203.5C 238.5,197.5 238.5,191.5 238.5,185.5 Z"/></g>
<g><path style="opacity:1" fill="#191405" d="M 165.5,190.5 C 167.179,192 168.512,193.833 169.5,196C 167.421,196.808 165.421,196.641 163.5,195.5C 164.456,193.925 165.123,192.258 165.5,190.5 Z"/></g>
</svg>
